<svg xmlns="http://www.w3.org/2000/svg" xmlns:xlink="http://www.w3.org/1999/xlink" width="500" zoomAndPan="magnify" viewBox="0 0 375 374.999991" height="500" preserveAspectRatio="xMidYMid meet" version="1.0"><defs><g/></defs><g fill="#d9d9d9" fill-opacity="1"><g transform="translate(8.631757, 316.278606)"><g><path d="M 29.59375 -11.59375 L 33.1875 -4.40625 L 42.796875 0 L 86.78125 -0.796875 L 98.78125 -4.40625 L 103.1875 -10.796875 L 103.984375 -18.390625 L 103.578125 -26.796875 L 102.390625 -35.1875 L 103.578125 -89.1875 L 101.984375 -112.375 L 105.578125 -117.984375 L 111.578125 -116.375 L 121.578125 -103.984375 L 143.984375 -82.78125 L 149.171875 -75.984375 L 162.375 -65.1875 L 171.578125 -65.1875 L 178.375 -69.984375 L 211.96875 -103.984375 L 217.171875 -110.78125 L 222.765625 -116.375 L 227.5625 -117.1875 L 230.765625 -112.375 L 231.96875 -104.390625 L 230.765625 -96.78125 L 231.15625 -89.59375 L 230.765625 -81.59375 L 231.96875 -66.796875 L 230.765625 -11.59375 L 234.765625 -3.203125 L 243.5625 0 L 291.546875 0.40625 L 299.15625 -4.40625 L 303.546875 -12.796875 L 304.75 -20.796875 L 303.15625 -68.796875 L 303.953125 -76.390625 L 303.15625 -91.984375 L 304.359375 -99.984375 L 303.953125 -107.984375 L 304.75 -116.375 L 303.953125 -124.375 L 305.15625 -131.578125 L 303.953125 -244.765625 L 304.75 -253.15625 L 303.953125 -259.953125 L 304.359375 -268.359375 L 299.953125 -275.953125 L 291.953125 -280.75 L 279.953125 -277.15625 L 269.953125 -271.5625 L 260.765625 -260.359375 L 237.96875 -236.765625 L 234.359375 -230.765625 L 175.171875 -167.96875 L 166.375 -165.171875 L 159.171875 -167.578125 L 153.96875 -172.765625 L 149.171875 -179.578125 L 142.78125 -184.765625 L 137.984375 -191.171875 L 110.375 -219.5625 L 100.78125 -231.5625 L 93.984375 -237.5625 L 88.78125 -243.15625 L 84.390625 -249.15625 L 78.78125 -254.359375 L 74.390625 -259.953125 L 65.59375 -269.15625 L 53.984375 -277.5625 L 42.390625 -280.75 L 34.390625 -276.359375 L 30 -268.359375 L 29.203125 -259.953125 L 30.390625 -83.59375 L 28.796875 -75.984375 L 30.390625 -19.203125 Z M 261.15625 14.390625 L 260.359375 22 L 268.765625 26 L 301.546875 25.59375 L 310.34375 26.390625 L 318.34375 25.59375 L 325.953125 22.390625 L 327.953125 14.796875 L 329.15625 6 L 328.75 -57.984375 L 329.953125 -65.1875 L 329.15625 -73.59375 L 329.546875 -81.984375 L 329.15625 -94.390625 L 329.546875 -101.984375 L 328.34375 -113.984375 L 329.15625 -126.375 L 327.953125 -133.984375 L 329.15625 -186.375 L 328.34375 -193.96875 L 329.953125 -218.359375 L 329.953125 -226.765625 L 328.34375 -234.359375 L 329.546875 -242.765625 L 325.546875 -251.15625 L 318.75 -251.15625 L 314.75 -242.765625 L 315.546875 -234.765625 L 313.546875 -218.359375 L 313.546875 -209.96875 L 314.75 -201.96875 L 313.546875 -178.765625 L 315.15625 -138.375 L 313.546875 -129.578125 L 314.34375 -65.59375 L 313.546875 -58.390625 L 315.15625 -37.59375 L 313.15625 -18 L 313.546875 -5.59375 L 309.546875 6 L 297.15625 10 L 269.953125 10 Z M 58.796875 14.390625 L 59.1875 22.796875 L 68.390625 26.796875 L 75.59375 25.59375 L 93.1875 25.203125 L 104.78125 26.390625 L 117.1875 25.59375 L 123.984375 22 L 129.578125 14.796875 L 128.375 -8.40625 L 129.1875 -16.390625 L 129.578125 -36 L 128.78125 -44 L 128.78125 -54.796875 L 129.984375 -62.796875 L 128.78125 -70.78125 L 125.984375 -81.1875 L 121.578125 -89.984375 L 115.984375 -91.578125 L 112.375 -86.78125 L 113.1875 -71.984375 L 112.375 -55.984375 L 113.578125 -47.59375 L 112.78125 -39.59375 L 113.984375 -32 L 113.578125 -24.390625 L 112.375 -17.203125 L 112.375 -9.59375 L 113.1875 -1.59375 L 109.984375 6 L 100.78125 10.390625 L 91.984375 9.59375 L 67.59375 10.796875 Z M 208.765625 -59.984375 L 216.765625 -72.78125 L 219.5625 -83.59375 L 217.171875 -88.78125 L 211.96875 -87.59375 L 206.375 -81.1875 L 200.765625 -76.390625 L 192.765625 -67.59375 L 182.375 -59.1875 L 178.765625 -53.984375 L 183.96875 -47.59375 L 194.375 -46 Z M 208.765625 -59.984375 "/></g></g></g></svg>